<svg width="23" height="20" fill="none" xmlns="http://www.w3.org/2000/svg"><path fill-rule="evenodd" clip-rule="evenodd" d="M17.5 4H17c-1-2-3-4-6.5-4S4.562 2.122 4 5.5c-2.218 0-4 2.242-4 4.5.5 2.5 1 3.5 3.522 4h14.127c2.675 0 4.851-2.216 4.851-4.94 0-2.725-2.326-5.06-5-5.06Zm3.6 4.864c0 2.005-1.619 3.636-3.608 3.636H4.336C2.772 12.5 1.5 11.218 1.5 9.642s1.272-2.858 2.836-2.858c.105 0 .219.008.359.025l.462.058.046-.464c.285-2.831 2.633-4.967 5.462-4.967 2.314 0 4.39 1.479 5.168 3.68l.147.416.419-.134c.355-.113.723-.17 1.093-.17 1.99 0 3.608 1.631 3.608 3.636Z" fill="#fff"/></svg>