<?xml version="1.0" encoding="UTF-8"?>
<!DOCTYPE svg PUBLIC "-//W3C//DTD SVG 1.1//EN" "http://www.w3.org/Graphics/SVG/1.1/DTD/svg11.dtd">
<svg xmlns="http://www.w3.org/2000/svg" version="1.1" width="1200px" height="630px" style="shape-rendering:geometricPrecision; text-rendering:geometricPrecision; image-rendering:optimizeQuality; fill-rule:evenodd; clip-rule:evenodd" xmlns:xlink="http://www.w3.org/1999/xlink">
<g><path style="opacity:1" fill="#eb563e" d="M 708.5,333.5 C 707.957,333.56 707.624,333.893 707.5,334.5C 718.814,335.499 730.147,335.832 741.5,335.5C 746.982,336.819 749.649,340.319 749.5,346C 749.564,351.609 746.897,355.276 741.5,357C 702.5,357.333 663.5,357.667 624.5,358C 616.26,365.121 616.593,371.788 625.5,378C 633.352,376.738 639.519,379.238 644,385.5C 645.493,392.034 643.327,396.867 637.5,400C 630.061,400.07 622.728,400.737 615.5,402C 609.611,407.162 608.945,412.995 613.5,419.5C 614.665,420.584 615.998,421.417 617.5,422C 643.5,422.333 669.5,422.667 695.5,423C 702.053,425.73 704.22,430.563 702,437.5C 700.878,439.624 699.378,441.457 697.5,443C 631.557,444.656 565.557,444.989 499.5,444C 490.341,438.539 489.341,431.873 496.5,424C 514.41,422.693 532.41,422.026 550.5,422C 557.34,419.487 559.84,414.654 558,407.5C 556.413,404.244 553.913,402.077 550.5,401C 525.833,400.667 501.167,400.333 476.5,400C 468.568,394.744 467.568,388.411 473.5,381C 477.903,378.955 482.57,377.955 487.5,378C 494.697,373.604 496.197,367.771 492,360.5C 490.581,359.54 489.081,358.707 487.5,358C 471.833,357.667 456.167,357.333 440.5,357C 433.188,353.54 431.021,348.04 434,340.5C 435.5,339 437,337.5 438.5,336C 442.871,335.828 447.204,335.328 451.5,334.5C 444.831,269.377 470.831,222.544 529.5,194C 574.984,177.261 617.651,182.594 657.5,210C 697.199,241.591 714.199,282.758 708.5,333.5 Z"/></g>
<g><path style="opacity:1" fill="#f9cec5" d="M 708.5,333.5 C 719.5,334.167 730.5,334.833 741.5,335.5C 730.147,335.832 718.814,335.499 707.5,334.5C 707.624,333.893 707.957,333.56 708.5,333.5 Z"/></g>
<g><path style="opacity:1" fill="#ea5038" d="M 666.5,378.5 C 677.245,378.071 687.912,378.571 698.5,380C 704.393,383.821 705.893,388.988 703,395.5C 701.457,397.378 699.624,398.878 697.5,400C 687.167,400.667 676.833,400.667 666.5,400C 659.303,395.604 657.803,389.771 662,382.5C 663.667,381.267 665.167,379.933 666.5,378.5 Z"/></g>
<g><path style="opacity:1" fill="#ea5038" d="M 729.5,378.5 C 739.172,378.334 748.839,378.5 758.5,379C 766.345,382.197 768.512,387.697 765,395.5C 763.457,397.378 761.624,398.878 759.5,400C 749.167,400.667 738.833,400.667 728.5,400C 721.3,395.63 719.8,389.797 724,382.5C 725.812,381.023 727.645,379.69 729.5,378.5 Z"/></g>
</svg>
